<svg xmlns="http://www.w3.org/2000/svg" xmlns:xlink="http://www.w3.org/1999/xlink" width="500" zoomAndPan="magnify" viewBox="0 0 375 374.999991" height="500" preserveAspectRatio="xMidYMid meet" version="1.2"><defs><clipPath id="30e1018d17"><path d="M 83 134.402344 L 156.972656 134.402344 L 156.972656 208.601562 L 83 208.601562 Z M 83 134.402344 "/></clipPath><clipPath id="37cce38cb7"><path d="M 85.3125 134.691406 L 154.722656 134.691406 C 155.320312 134.691406 155.894531 134.929688 156.316406 135.351562 C 156.738281 135.773438 156.972656 136.34375 156.972656 136.941406 L 156.972656 206.351562 C 156.972656 206.949219 156.738281 207.523438 156.316406 207.945312 C 155.894531 208.367188 155.320312 208.601562 154.722656 208.601562 L 85.3125 208.601562 C 84.714844 208.601562 84.144531 208.367188 83.722656 207.945312 C 83.300781 207.523438 83.0625 206.949219 83.0625 206.351562 L 83.0625 136.941406 C 83.0625 136.34375 83.300781 135.773438 83.722656 135.351562 C 84.144531 134.929688 84.714844 134.691406 85.3125 134.691406 Z M 85.3125 134.691406 "/></clipPath><clipPath id="a17202c76f"><path d="M 83.0625 143.511719 L 156.5625 143.511719 L 156.5625 208.761719 L 83.0625 208.761719 Z M 83.0625 143.511719 "/></clipPath></defs><g id="8b78afd692"><g style="fill:#ffffff;fill-opacity:1;"><g transform="translate(157.701645, 208.424912)"><path style="stroke:none" d="M 57.671875 -73.65625 L 76.875 -73.65625 C 77.875 -73.65625 78.375 -73.15625 78.375 -72.15625 L 78.375 -10.859375 C 78.375 -7.609375 77.425781 -4.984375 75.53125 -2.984375 C 73.644531 -0.992188 71.078125 0 67.828125 0 L 54.453125 0 C 53.242188 0 52.71875 -0.601562 52.875 -1.8125 L 56.421875 -34.859375 C 56.523438 -35.640625 56.179688 -36.03125 55.390625 -36.03125 C 54.609375 -36.03125 54.164062 -35.640625 54.0625 -34.859375 L 50.4375 -1.8125 C 50.28125 -0.601562 49.597656 0 48.390625 0 L 27.46875 0 C 26.257812 0 25.734375 -0.601562 25.890625 -1.8125 L 29.5 -34.859375 C 29.613281 -35.640625 29.273438 -36.03125 28.484375 -36.03125 C 27.691406 -36.03125 27.242188 -35.640625 27.140625 -34.859375 L 23.53125 -1.8125 C 23.375 -0.601562 22.691406 0 21.484375 0 L 11.71875 0 C 8.46875 0 5.898438 -0.992188 4.015625 -2.984375 C 2.128906 -4.984375 1.1875 -7.609375 1.1875 -10.859375 L 1.1875 -72.15625 C 1.1875 -73.15625 1.679688 -73.65625 2.671875 -73.65625 L 24.78125 -73.65625 C 25.988281 -73.65625 26.539062 -73.050781 26.4375 -71.84375 L 22.03125 -31.3125 C 21.925781 -30.53125 22.269531 -30.140625 23.0625 -30.140625 C 23.84375 -30.140625 24.285156 -30.53125 24.390625 -31.3125 L 28.796875 -71.84375 C 28.898438 -73.050781 29.554688 -73.65625 30.765625 -73.65625 L 51.703125 -73.65625 C 52.898438 -73.65625 53.445312 -73.050781 53.34375 -71.84375 L 48.9375 -31.3125 C 48.832031 -30.53125 49.175781 -30.140625 49.96875 -30.140625 C 50.75 -30.140625 51.191406 -30.53125 51.296875 -31.3125 L 55.703125 -71.84375 C 55.816406 -73.050781 56.472656 -73.65625 57.671875 -73.65625 Z M 57.671875 -73.65625 "/></g></g><g style="fill:#ffffff;fill-opacity:1;"><g transform="translate(237.247477, 208.424912)"><path style="stroke:none" d="M 3.546875 -73.65625 L 50.4375 -73.65625 C 51.4375 -73.65625 51.9375 -73.15625 51.9375 -72.15625 L 51.9375 -43.515625 C 51.9375 -42.515625 51.4375 -42.015625 50.4375 -42.015625 L 30.453125 -42.015625 C 29.929688 -42.015625 29.445312 -42.222656 29 -42.640625 C 28.550781 -43.066406 28.351562 -43.539062 28.40625 -44.0625 L 31.234375 -70.109375 C 31.335938 -70.898438 31 -71.296875 30.21875 -71.296875 C 29.425781 -71.296875 28.976562 -70.898438 28.875 -70.109375 L 25.734375 -41.078125 C 25.628906 -40.128906 26.070312 -39.65625 27.0625 -39.65625 L 48.390625 -39.65625 C 49.179688 -39.65625 49.578125 -39.265625 49.578125 -38.484375 C 49.578125 -37.691406 49.179688 -37.296875 48.390625 -37.296875 L 26.828125 -37.296875 C 25.835938 -37.296875 25.289062 -36.820312 25.1875 -35.875 L 21.640625 -3.546875 C 21.535156 -2.753906 21.875 -2.359375 22.65625 -2.359375 C 23.445312 -2.359375 23.894531 -2.753906 24 -3.546875 L 27.21875 -32.890625 C 27.332031 -33.460938 27.570312 -33.945312 27.9375 -34.34375 C 28.300781 -34.738281 28.742188 -34.9375 29.265625 -34.9375 L 50.4375 -34.9375 C 51.4375 -34.9375 51.9375 -34.4375 51.9375 -33.4375 L 51.9375 -1.5 C 51.9375 -0.5 51.4375 0 50.4375 0 L 2.984375 0 C 1.785156 0 1.1875 -0.601562 1.1875 -1.8125 L 1.1875 -71.375 C 1.1875 -72.894531 1.972656 -73.65625 3.546875 -73.65625 Z M 3.546875 -73.65625 "/></g></g><g style="fill:#ffffff;fill-opacity:1;"><g transform="translate(290.435393, 208.424912)"><path style="stroke:none" d="M 31.234375 -34.9375 L 50.28125 -34.9375 C 51.488281 -34.9375 52.09375 -34.332031 52.09375 -33.125 L 52.09375 -1.8125 C 52.09375 -0.601562 51.488281 0 50.28125 0 L 35.71875 0 C 33.726562 0 31.867188 -0.484375 30.140625 -1.453125 C 28.410156 -2.421875 27.046875 -3.734375 26.046875 -5.390625 C 25.046875 -7.046875 24.648438 -8.867188 24.859375 -10.859375 L 31.3125 -69.796875 C 31.363281 -70.523438 31.15625 -70.972656 30.6875 -71.140625 C 30.320312 -71.296875 29.953125 -71.226562 29.578125 -70.9375 C 29.210938 -70.644531 29.003906 -70.238281 28.953125 -69.71875 L 21.5625 -1.8125 C 21.40625 -0.601562 20.722656 0 19.515625 0 L 2.671875 0 C 1.679688 0 1.1875 -0.5 1.1875 -1.5 L 1.1875 -72.15625 C 1.1875 -73.15625 1.679688 -73.65625 2.671875 -73.65625 L 41.234375 -73.65625 C 44.484375 -73.65625 47.101562 -72.65625 49.09375 -70.65625 C 51.09375 -68.664062 52.09375 -66.046875 52.09375 -62.796875 L 52.09375 -48.15625 C 52.09375 -44.90625 51.09375 -42.28125 49.09375 -40.28125 C 47.101562 -38.289062 44.484375 -37.296875 41.234375 -37.296875 L 31.234375 -37.296875 C 30.453125 -37.296875 30.0625 -36.90625 30.0625 -36.125 C 30.0625 -35.332031 30.453125 -34.9375 31.234375 -34.9375 Z M 31.234375 -34.9375 "/></g></g><g style="fill:#ffffff;fill-opacity:1;"><g transform="translate(29.011525, 208.424912)"><path style="stroke:none" d="M 2.671875 0 C 1.679688 0 1.1875 -0.5 1.1875 -1.5 L 1.1875 -72.15625 C 1.1875 -73.15625 1.679688 -73.65625 2.671875 -73.65625 L 41.078125 -73.65625 C 44.328125 -73.65625 46.945312 -72.65625 48.9375 -70.65625 C 50.9375 -68.664062 51.9375 -66.046875 51.9375 -62.796875 L 51.9375 -31.390625 C 51.9375 -28.140625 50.9375 -25.515625 48.9375 -23.515625 C 46.945312 -21.523438 44.328125 -20.53125 41.078125 -20.53125 L 28.171875 -20.53125 C 27.648438 -20.53125 27.164062 -20.738281 26.71875 -21.15625 C 26.269531 -21.582031 26.070312 -22.054688 26.125 -22.578125 L 31.3125 -70.109375 C 31.414062 -70.898438 31.078125 -71.296875 30.296875 -71.296875 C 29.503906 -71.296875 29.054688 -70.898438 28.953125 -70.109375 L 21.71875 -4.09375 C 21.613281 -2.988281 21.179688 -2.03125 20.421875 -1.21875 C 19.660156 -0.40625 18.726562 0 17.625 0 Z M 2.671875 0 "/></g></g><g clip-rule="nonzero" clip-path="url(#30e1018d17)"><g clip-rule="nonzero" clip-path="url(#37cce38cb7)"><path style=" stroke:none;fill-rule:nonzero;fill:#ffffff;fill-opacity:1;" d="M 83.0625 134.691406 L 156.972656 134.691406 L 156.972656 208.601562 L 83.0625 208.601562 Z M 83.0625 134.691406 "/></g></g><g clip-rule="nonzero" clip-path="url(#a17202c76f)"><path style=" stroke:none;fill-rule:nonzero;fill:#efbf04;fill-opacity:1;" d="M 133.621094 143.558594 C 132.039062 143.578125 129.792969 143.859375 126.703125 144.414062 C 125.019531 144.714844 124.605469 144.863281 124.160156 145.3125 C 123.652344 145.828125 123.625 145.945312 123.570312 148.042969 C 123.511719 150.199219 123.519531 150.242188 123.992188 150.550781 C 124.257812 150.722656 125.140625 151.449219 125.957031 152.164062 C 127.863281 153.839844 128.195312 153.859375 130.109375 152.402344 C 130.941406 151.769531 130.984375 151.542969 130.277344 151.53125 C 129.917969 151.527344 128.726562 150.984375 129.03125 150.96875 C 129.101562 150.964844 129.832031 151.1875 130.65625 151.464844 C 133.210938 152.097656 134.203125 149.429688 136.226562 148.46875 C 140.386719 149.378906 138.828125 155.03125 142.140625 159.847656 C 144.027344 163.371094 145.632812 163.824219 149.910156 162.039062 C 150.167969 161.933594 150.238281 161.953125 150.144531 162.105469 C 149.933594 162.449219 147.015625 163.300781 146.054688 163.300781 C 144.851562 163.300781 144.042969 162.910156 143.234375 161.941406 L 142.542969 161.105469 C 138.898438 160.550781 136.492188 162.179688 135.433594 163.9375 C 135.25 164.160156 131.253906 166.90625 130.886719 168.234375 C 130.683594 164.886719 134.585938 163.972656 134.335938 163.9375 C 130.953125 164.554688 122.558594 164.210938 120.421875 167.386719 C 118.308594 164 120.644531 160.5625 121.027344 159.238281 C 121.507812 157.625 121.214844 155.886719 120.351562 154.484375 C 120.242188 154.011719 119.878906 153.601562 119.527344 153.265625 C 118.941406 152.707031 118.179688 152.335938 117.652344 151.726562 C 117.089844 151.078125 116.75 150.164062 115.855469 149.863281 C 114.332031 149.347656 112.707031 149.828125 111.269531 150.378906 C 110.429688 150.699219 109.558594 150.925781 108.648438 150.984375 C 107.878906 151.035156 106.328125 150.1875 106.339844 150.953125 C 106.34375 151.421875 107.957031 150.640625 107.507812 150.910156 C 107.085938 151.164062 106.652344 151.296875 106.117188 151.375 C 105.195312 151.503906 104.273438 151.613281 103.335938 151.640625 C 103.132812 151.644531 102.792969 151.523438 103.214844 151.667969 C 103.878906 151.902344 104.414062 152.300781 105.113281 152.554688 C 105.804688 152.808594 104.675781 152.941406 104.421875 152.960938 C 102.96875 153.066406 101.398438 153.429688 100.050781 152.863281 C 99.78125 152.75 99.585938 152.769531 99.820312 153.078125 C 100.320312 153.738281 101.199219 153.914062 101.949219 154.152344 C 102.242188 154.246094 103.027344 154.378906 102.980469 154.382812 C 102.015625 154.46875 101.304688 155.433594 100.304688 155.292969 C 100.027344 155.253906 99.804688 155.273438 100.175781 155.433594 C 101.640625 156.066406 102.957031 157.121094 104.519531 157.484375 C 104.25 158.132812 104.300781 158.695312 104.644531 159.589844 C 104.953125 160.398438 104.949219 160.453125 104.515625 161.378906 C 104.269531 161.90625 102.847656 162.773438 102.601562 162.933594 C 102 163.332031 103.535156 163.378906 104.226562 164.105469 C 104.738281 164.640625 104.5 165.402344 104.308594 165.875 C 105.429688 165.746094 105.027344 165.941406 105.984375 166.195312 C 105.078125 166.296875 104.535156 166.570312 104.710938 166.835938 C 105.28125 167.710938 106.070312 168.609375 107.339844 169.964844 C 109.542969 169.195312 110.292969 168.300781 110.8125 168.566406 C 112.179688 169.273438 112.324219 170.070312 111.375 171.683594 C 110.8125 172.644531 110.496094 172.800781 108.277344 173.210938 C 104.964844 173.820312 102.148438 175.636719 101.136719 177.8125 C 99.96875 179.472656 101.230469 182.769531 101.230469 182.769531 C 101.230469 182.769531 99.496094 181.089844 100.121094 178.703125 C 96.867188 179.855469 94.824219 177.570312 91.660156 181.058594 C 90.976562 182.09375 90.859375 181.867188 91.507812 180.761719 C 91.976562 179.957031 92.015625 179.757812 91.898438 178.652344 C 91.824219 177.984375 91.511719 176.707031 91.203125 175.816406 C 90.527344 173.886719 90.136719 171.269531 90.332031 169.988281 C 90.441406 169.246094 90.519531 169.105469 90.726562 169.273438 C 91.664062 170.054688 93.171875 169.851562 94.054688 168.824219 C 94.347656 168.488281 94.824219 168.089844 95.117188 167.941406 C 96.050781 167.46875 96.417969 166.355469 96.417969 164.015625 C 96.417969 162.039062 97.460938 160.855469 96.726562 161.023438 C 95.730469 161.253906 90.894531 158.109375 90.261719 158.683594 C 88.523438 159.28125 87.398438 164.34375 85.910156 165.730469 C 85.917969 169.242188 85.375 173 84.488281 175.835938 C 83.1875 179.917969 83.050781 180.582031 83.050781 182.875 C 83.054688 185.226562 83.53125 187.402344 84.382812 188.929688 C 84.644531 189.398438 84.808594 189.929688 84.75 190.113281 C 84.671875 190.355469 84.851562 190.546875 85.429688 190.832031 C 86.203125 191.214844 86.230469 191.214844 87.988281 190.863281 C 92.777344 189.375 94.601562 195 102.488281 190.046875 C 103.722656 191.324219 100.792969 196.5 103.117188 197.8125 C 103.117188 197.8125 107.820312 197.378906 108.949219 196.867188 C 108.339844 198.1875 103.125 199.265625 103.125 199.265625 C 101.136719 200.753906 104.792969 206.421875 101.851562 211.058594 C 101.832031 211.085938 101.816406 211.109375 101.816406 211.113281 C 101.816406 211.40625 106.191406 208.839844 109.015625 209.140625 C 110.660156 209.316406 115.914062 210.535156 117.542969 212.097656 C 120.277344 214.71875 125.859375 212.40625 127.242188 211.742188 C 128.054688 208.449219 126.59375 202.179688 124.40625 199.695312 C 123.863281 199.09375 123.773438 198.871094 123.871094 198.378906 C 123.957031 197.953125 123.921875 197.808594 123.75 197.863281 C 121.40625 200.296875 119.152344 201.449219 118.59375 205.8125 C 118.59375 199.9375 122.332031 199.078125 123.5 197.457031 C 125.347656 194.886719 128.617188 191.863281 131.195312 189.945312 C 131.757812 189.523438 124.21875 189.054688 124.1875 185.152344 C 124.964844 188.917969 133.542969 188.332031 133.933594 188.003906 C 135.375 186.800781 136.816406 185.054688 138.058594 182.992188 C 138.980469 181.453125 140.125 178.984375 139.980469 178.835938 C 139.265625 179.429688 137.589844 180.203125 137.207031 179.296875 C 137.921875 179.890625 139.550781 178.253906 140.429688 177.972656 C 146.53125 176.371094 149.644531 173.070312 153.597656 166.949219 C 154.582031 165.421875 156.867188 160.917969 157.046875 160.148438 C 157.632812 157.648438 153.101562 152.253906 147.132812 148.34375 C 142.550781 145.34375 139.667969 144.222656 134.984375 143.621094 C 134.597656 143.574219 134.148438 143.550781 133.621094 143.558594 Z M 133.621094 143.558594 "/></g></g></svg>